<svg xmlns="http://www.w3.org/2000/svg" viewBox="0 0 640 220" width="640" height="220">
  <defs>
    <linearGradient id="shieldStroke" x1="0" y1="0" x2="1" y2="1">
      <stop offset="0" stop-color="#f5f5f5"></stop>
      <stop offset="1" stop-color="#8a8a8a"></stop>
    </linearGradient>
    <linearGradient id="arrowGrad" x1="0" y1="1" x2="0" y2="0">
      <stop offset="0" stop-color="#e8580c"></stop>
      <stop offset="1" stop-color="#ff8a3d"></stop>
    </linearGradient>
  </defs>

  
  <g transform="translate(10,10)">
    <path d="M100 4 L188 34 L188 108 C188 158 150 192 100 210 C50 192 12 158 12 108 L12 34 Z" fill="#0c0c0c" stroke="url(#shieldStroke)" stroke-width="6" stroke-linejoin="round"></path>
    
    <path d="M46 118 L100 76 L154 118" fill="none" stroke="#f2f2f2" stroke-width="9" stroke-linecap="round" stroke-linejoin="round"></path>
    <path d="M60 118 L60 168 L140 168 L140 118" fill="none" stroke="#f2f2f2" stroke-width="9" stroke-linecap="round" stroke-linejoin="round"></path>
    
    <path d="M100 172 L100 62 M78 92 L100 58 L122 92" fill="none" stroke="url(#arrowGrad)" stroke-width="10" stroke-linecap="round" stroke-linejoin="round"></path>
  </g>

  
  <text x="235" y="108" font-family="Oswald, Arial Narrow, sans-serif" font-weight="700" font-size="62" letter-spacing="1" fill="#f2f2f2">MODULEX<tspan fill="#e8580c">VB</tspan></text>
  <text x="237" y="140" font-family="Montserrat, Arial, sans-serif" font-weight="600" font-size="17" letter-spacing="4" fill="#b5b5b5">PREMIUM EVENT SOLUTIONS</text>
</svg>